#N canvas 678 55 630 521 10;
#X obj 46 33 receive fromGUI;
#X obj 47 238 send toNetwork;
#X floatatom 47 161 5 0 0 0 - - -, f 5;
#X text 56 206 send message straight to multicast on user-specified
port;
#X obj 47 64 list trim;
#X msg 48 183 list /led \$1;
#X obj 46 92 route /valueToNetwork;
#X connect 0 0 4 0;
#X connect 2 0 5 0;
#X connect 4 0 6 0;
#X connect 5 0 1 0;
#X connect 6 0 2 0;
